# xmcd
#
# Track frame offsets:
#	150
#	17474
#	38686
#	55985
#	69095
#	87047
#	103011
#	121604
#	138117
#	158094
#
# Disc length: 2352 seconds
#
# Revision: 1
# Processed by: cddbd v1.5.2PL0 Copyright (c) Steve Scherf et al.
# Submitted via: audiograbber 1.83.01
#
DISCID=69092e0a
DTITLE=JonesTM - HC200745
DYEAR=2007
DGENRE=Country
TTITLE0=Star De Azlan - She's Pretty
TTITLE1=Alan Jackson - Small Town Southern Man
TTITLE2=Emma Mae Jacob - What If We Fly [Radio Edit]
TTITLE3=Boyz II Men - Ribbon In The Sky
TTITLE4=Anthony Hamilton - Do You Feel Me
TTITLE5=Chrisette Michele - Be OK [Radio Edit Without Rap]
TTITLE6=Alicia Keys - Like You'll Never See Me Again [Radio Edit]
TTITLE7=Paul Hardcastle - Lucky Star [Radio Edit]
TTITLE8=Jeanne Ricks - Simple Pleasure
TTITLE9=Celine Dion - Taking Chances
EXTD=
EXTT0=
EXTT1=
EXTT2=
EXTT3=
EXTT4=
EXTT5=
EXTT6=
EXTT7=
EXTT8=
EXTT9=
PLAYORDER=
